<svg width="122" height="62" viewBox="0 0 122 62" fill="none" xmlns="http://www.w3.org/2000/svg">
<path fill-rule="evenodd" clip-rule="evenodd" d="M89.8621 4.84375H91.64V18.8705L89.8621 17.7519V4.84375ZM87.6397 0C87.6724 0 87.7049 0.000705757 87.7372 0.00210287C87.771 0.000705553 87.805 0 87.8391 0H93.2189C93.3304 0 93.4401 0.00753687 93.5477 0.022129C93.6505 0.00754415 93.7556 0 93.8625 0C95.09 0 96.085 0.995056 96.085 2.22252V21.667L120.205 36.8417C121.314 37.5398 121.716 39.0447 121.103 40.2031C120.489 41.3615 119.092 41.7346 117.982 41.0365L61.1917 5.30731L4.401 41.0365C3.29143 41.7346 1.89441 41.3615 1.28068 40.2031C0.666952 39.0448 1.06891 37.5398 2.17849 36.8417L59.7525 0.619689C60.2084 0.332818 60.713 0.226849 61.1917 0.281934C61.6704 0.226861 62.1749 0.332834 62.6309 0.619695L85.4172 14.9555V2.42188V2.22247C85.4172 0.995032 86.4122 0 87.6397 0ZM18.7417 40.2031C18.7417 41.5407 19.826 42.625 21.1636 42.625H100.775C102.113 42.625 103.197 41.5407 103.197 40.2031C103.197 38.8656 102.113 37.7812 100.775 37.7812H21.1636C19.826 37.7812 18.7417 38.8656 18.7417 40.2031ZM32.0767 49.8906C32.0767 51.2282 33.161 52.3125 34.4985 52.3125H87.4401C88.7777 52.3125 89.862 51.2282 89.862 49.8906C89.862 48.5531 88.7777 47.4688 87.4401 47.4688H34.4985C33.161 47.4688 32.0767 48.5531 32.0767 49.8906ZM50.0563 62C48.7187 62 47.6344 60.9157 47.6344 59.5781C47.6344 58.2406 48.7187 57.1562 50.0563 57.1562H71.8827C73.2203 57.1562 74.3046 58.2406 74.3046 59.5781C74.3046 60.9157 73.2203 62 71.8827 62H50.0563Z" fill="#64868E"/>
</svg>
